# xmcd
#
# Track frame offsets: 
#        150
#        32363
#        57036
#        73358
#        93691
#        116565
#        140727
#        162138
#        181008
#        205734
#        223351
#        242312
#        272919
#
# Disc length: 4061 seconds
#
# Revision: 0
# Processed by: cddbd v1.5.2PL0 Copyright (c) Steve Scherf et al.
# Submitted via: ExactAudioCopyFreeDBPlugin 1.0
#
DISCID=be0fdb0d
DTITLE=Jimmy Johnson - Storyville - The Chicago Blues Box 2 - CD4
DYEAR=2017
DGENRE=Blues
TTITLE0=Long About Midnight
TTITLE1=Strange Things Happening
TTITLE2=Look On Yonder Wall
TTITLE3=I'm Crazy About You Baby
TTITLE4=Breaking Up Somebody's Home
TTITLE5=Sweet Little Angel
TTITLE6=Three Times Chicago
TTITLE7=Midnight Hour
TTITLE8=My Own Fault
TTITLE9=Get Ready Here I Come
TTITLE10=Same Old Blues
TTITLE11=So Many Roads No.2
TTITLE12=As The Years Go Passing By
EXTD=
EXTT0=
EXTT1=
EXTT2=
EXTT3=
EXTT4=
EXTT5=
EXTT6=
EXTT7=
EXTT8=
EXTT9=
EXTT10=
EXTT11=
EXTT12=
PLAYORDER=
